<?xml version="1.0" encoding="iso-8859-1"?>
<!-- Uploaded to: SVG Repo, www.svgrepo.com, Generator: SVG Repo Mixer Tools -->
<svg version="1.1" id="Layer_1" xmlns="http://www.w3.org/2000/svg" xmlns:xlink="http://www.w3.org/1999/xlink" 
	 viewBox="0 0 512.005 512.005" xml:space="preserve">
<path style="fill:#174F79;" d="M455.945,247.999c-4.314,0-7.811-3.497-7.811-7.811v-30.671c0-4.314,3.497-7.811,7.811-7.811
	c4.314,0,7.811,3.497,7.811,7.811v30.671C463.756,244.502,460.259,247.999,455.945,247.999z"/>
<rect y="407.348" style="fill:#5D5D5D;" width="512.005" height="33.146"/>
<path style="fill:#174F79;" d="M37.848,213.351L0.697,121.551c-1.156-2.857,1.556-5.76,4.485-4.8l28.835,9.445
	c10.32,3.381,18.625,11.139,22.7,21.206l0,0c3.95,9.761,15.065,14.472,24.826,10.521l33.984-13.753l66.008,46.347L37.848,213.351z"
	/>
<path style="fill:#73AFD6;" d="M258.109,228.416l-81.259,32.886c-15.057,6.094-31.881,6.165-46.989,0.198l-85.477-35.251
	l43.365-17.55l330.445-133.73c17.331-7.014,36.636-1.355,47.661,12.618c4.175,5.292,11.28,7.286,17.528,4.758l0,0
	c10.268-4.156,22.07,0.846,26.225,11.114l0.504,1.246c4.156,10.268-0.846,22.07-11.114,26.225l-49.973,20.224l-24.297,9.833
	l-94.817,38.372L258.109,228.416z"/>
<g>
	<path style="fill:#D3EFFD;" d="M114.687,197.797l-91.044,36.845c-5.772,2.336-12.406-0.475-14.743-6.248l0,0
		c-2.336-5.772,0.475-12.406,6.248-14.743l91.044-36.845c5.772-2.336,12.406,0.476,14.743,6.248l0,0
		C123.271,188.827,120.459,195.461,114.687,197.797z"/>
	<path style="fill:#D3EFFD;" d="M337.188,145.625l-127.344,51.536c-5.772,2.336-12.406-0.475-14.743-6.248l0,0
		c-2.336-5.772,0.475-12.406,6.248-14.743l127.343-51.536c5.772-2.336,12.406,0.475,14.743,6.248l0,0
		C345.772,136.655,342.96,143.289,337.188,145.625z"/>
</g>
<path style="fill:#174F79;" d="M339.625,223.355l-39.794,16.105c-18.347,7.425-39.435-1.511-46.86-19.858l0,0
	c-7.425-18.347,1.511-39.435,19.858-46.86l39.794-16.105L339.625,223.355z"/>
<g style="opacity:0.63;">
	
		<rect x="300.486" y="159.023" transform="matrix(-0.927 0.3751 -0.3751 -0.927 677.8159 258.0857)" style="fill:#73AFD6;" width="26.607" height="71.98"/>
</g>
<path style="fill:#D3EFFD;" d="M482.832,91.898c-6.249,2.529-13.352,0.534-17.528-4.758c-11.025-13.973-30.331-19.631-47.661-12.618
	l-15.449,6.252l15.216,37.598L482.832,91.898z"/>
<polygon style="fill:#73AFD6;" points="493.224,311.627 418.667,311.627 414.292,265.229 497.599,265.229 "/>
<rect x="414.291" y="239.144" style="fill:#F7B737;" width="83.308" height="26.079"/>
<rect x="442.568" y="292.219" style="fill:#73AFD6;" width="26.756" height="115.128"/>
<rect x="442.568" y="311.623" style="fill:#174F79;" width="26.756" height="17.054"/>
</svg>