<?xml version="1.0" encoding="iso-8859-1"?>
<!-- Uploaded to: SVG Repo, www.svgrepo.com, Generator: SVG Repo Mixer Tools -->
<svg height="28px" width="128px" version="1.1" id="Layer_1" xmlns="http://www.w3.org/2000/svg" xmlns:xlink="http://www.w3.org/1999/xlink" 
	 viewBox="0 0 504.446 504.446" xml:space="preserve">
<path style="fill:#FD9808;" d="M332.8,411.279c-1.679,13.43-5.036,27.698-6.715,41.128l0,0
	c-4.197,24.341-15.948,42.807-35.252,42.807h12.59c25.18,0,40.289-18.466,46.164-42.807l0,0c2.518-13.43,6.715-27.698,9.233-41.128
	H332.8z"/>
<path style="fill:#FFDD09;" d="M175.003,453.246c4.197,24.341,15.948,42.807,35.252,42.807h83.095
	c19.305,0,31.056-18.466,35.252-42.807l0,0c2.518-13.43,5.036-27.698,6.715-41.128H168.289
	C169.967,425.548,173.325,438.977,175.003,453.246"/>
<path style="fill:#FFFFFF;" d="M175.003,453.246c-1.679-14.269-5.036-27.698-6.715-41.967h-25.18
	c2.518,13.43,5.875,27.698,9.233,41.128c5.036,24.341,20.984,42.807,46.164,42.807h12.59
	C190.951,495.213,179.2,476.747,175.003,453.246"/>
<path style="fill:#FFDD09;" d="M371.41,193.049c0-14.269-9.233-25.18-20.984-25.18h-35.252v16.787c0,5.036-3.357,8.393-6.715,8.393
	h-27.698c-4.197,0-6.715-3.357-6.715-8.393v-16.787h-41.967v16.787c0,5.036-3.357,8.393-6.715,8.393h-27.698
	c-4.197,0-6.715-3.357-6.715-8.393v-16.787H154.02c-11.751,0-20.984,10.911-20.984,25.18c0,5.875-6.715,100.721-6.715,100.721
	c0,11.751,1.679,19.305,10.911,26.859c10.911,9.233,19.305,23.502,20.144,40.289l0,0c0.839,8.393,2.518,41.967,4.197,50.361h182.138
	c0.839-8.393,3.357-41.967,4.197-50.361l0,0c0.839-16.787,8.393-31.895,20.984-40.289c9.233-6.715,10.911-14.269,10.911-26.859
	C378.125,293.77,371.41,198.925,371.41,193.049"/>
<path style="fill:#FD9808;" d="M394.911,193.049c0-14.269-10.911-25.18-25.18-25.18h-19.305c11.751,0,20.984,10.911,20.984,25.18
	c0,5.875,7.554,100.721,7.554,100.721c0,11.751-1.679,19.305-10.911,26.859c-11.751,9.233-19.305,23.502-20.984,40.289l0,0
	c-0.839,8.393-2.518,41.967-4.197,50.361h18.466c0.839-8.393,4.197-41.967,4.197-50.361l0,0
	c1.679-16.787,10.911-31.895,25.18-40.289c10.911-6.715,12.59-14.269,12.59-26.859C404.144,293.77,394.911,198.925,394.911,193.049"
	/>
<path style="fill:#FFFFFF;" d="M157.377,360.918c-0.839-16.787-8.393-31.895-20.984-40.289
	c-8.393-6.715-10.072-14.269-10.072-26.859c0,0,7.554-94.846,7.554-100.721c0-14.269,9.233-25.18,20.984-25.18h-20.144
	c-14.269,0-25.18,10.911-25.18,25.18c0,5.875-8.393,100.721-8.393,100.721c0,11.751,1.679,19.305,12.59,26.859
	c14.269,9.233,23.502,23.502,25.18,40.289l0,0c0.839,8.393,3.357,41.967,4.197,50.361h18.466
	C160.734,402.885,158.216,369.311,157.377,360.918L157.377,360.918z"/>
<path style="fill:#33A9F8;" d="M336.157,318.951v41.967c0,9.233-7.554,16.787-16.787,16.787H185.075
	c-9.233,0-16.787-7.554-16.787-16.787v-41.967H336.157z"/>
<path style="fill:#FFDD09;" d="M272.367,167.869v-16.787c0-5.036,3.357-8.393,6.715-8.393h26.02c3.357,0,6.715,3.357,6.715,8.393
	v16.787h32.734l-14.269-92.328H166.61l-6.715,92.328h32.734v-16.787c0-5.036,3.357-8.393,6.715-8.393h26.02
	c3.357,0,6.715,3.357,6.715,8.393v16.787H272.367z"/>
<polygon style="fill:#FD9808;" points="351.266,75.541 330.282,75.541 344.551,167.869 369.731,167.869 "/>
<polygon style="fill:#FFFFFF;" points="143.948,75.541 134.715,167.869 159.895,167.869 166.61,75.541 "/>
<g>
	<polygon style="fill:#54C9FD;" points="201.862,75.541 302.584,75.541 302.584,8.393 201.862,8.393 	"/>
	<path style="fill:#54C9FD;" d="M201.862,8.393h-25.18c-18.466,0-33.574,15.108-33.574,33.574c0,22.662,15.108,33.574,33.574,33.574
		h25.18V8.393z"/>
</g>
<path style="fill:#FFFFFF;" d="M143.108,41.967c0-18.466,15.108-33.574,33.574-33.574h-25.18c-18.466,0-33.574,15.108-33.574,33.574
	c0,22.662,15.108,33.574,33.574,33.574h25.18C158.216,75.541,143.108,64.63,143.108,41.967"/>
<path style="fill:#54C9FD;" d="M302.584,75.541h25.18c18.466,0,33.574-15.108,33.574-33.574c0-22.662-15.108-33.574-33.574-33.574
	h-25.18V75.541z"/>
<path style="fill:#33A9F8;" d="M361.338,41.967c0,18.466-15.108,33.574-33.574,33.574h25.18c18.466,0,33.574-15.108,33.574-33.574
	c0-22.662-15.108-33.574-33.574-33.574h-25.18C346.229,8.393,361.338,20.144,361.338,41.967"/>
<g>
	<polygon style="fill:#54C9FD;" points="185.075,142.689 218.649,142.689 218.649,75.541 185.075,75.541 	"/>
	<polygon style="fill:#54C9FD;" points="218.649,218.229 201.862,243.41 185.075,218.229 185.075,193.049 218.649,193.049 	"/>
	<polygon style="fill:#54C9FD;" points="285.797,142.689 319.37,142.689 319.37,75.541 285.797,75.541 	"/>
	<polygon style="fill:#54C9FD;" points="319.37,218.229 302.584,243.41 285.797,218.229 285.797,193.049 319.37,193.049 	"/>
</g>
<g>
	<path style="fill:#33A9F8;" d="M218.649,193.049h-33.574c-5.036,0-8.393-3.357-8.393-8.393v-33.574
		c0-5.036,3.357-8.393,8.393-8.393h33.574c5.036,0,8.393,3.357,8.393,8.393v33.574C227.043,189.692,223.685,193.049,218.649,193.049
		"/>
	<path style="fill:#33A9F8;" d="M319.37,193.049h-33.574c-5.036,0-8.393-3.357-8.393-8.393v-33.574c0-5.036,3.357-8.393,8.393-8.393
		h33.574c5.036,0,8.393,3.357,8.393,8.393v33.574C327.764,189.692,324.407,193.049,319.37,193.049"/>
</g>
<path d="M352.944,83.934H151.502c-25.18,0-41.967-16.787-41.967-41.967C109.534,18.466,128,0,151.502,0h201.443
	c23.502,0,41.967,18.466,41.967,41.967S376.446,83.934,352.944,83.934z M151.502,16.787c-14.269,0-25.18,10.911-25.18,25.18
	c0,22.662,17.626,25.18,25.18,25.18h201.443c14.269,0,25.18-10.911,25.18-25.18s-10.911-25.18-25.18-25.18H151.502z"/>
<path d="M305.941,504.446H198.505c-26.859,0-47.843-19.305-54.557-49.521l-1.679-8.393c-2.518-11.751-5.036-22.662-7.554-33.574
	c0-1.679,0-4.197,1.679-5.875c1.679-1.679,4.197-3.357,6.715-3.357h218.229c2.518,0,5.036,0.839,6.715,3.357
	c1.679,1.679,1.679,4.197,1.679,6.715c-1.679,6.715-3.357,14.269-5.036,20.984c-1.679,6.715-3.357,13.429-4.197,20.144
	C352.944,486.82,332.8,504.446,305.941,504.446z M153.18,420.511c1.679,7.554,3.357,15.108,5.036,22.662l1.679,8.393l0,0
	c5.036,22.662,18.466,36.092,37.77,36.092h107.436c25.18,0,34.413-22.662,37.77-36.092c0.839-6.715,2.518-13.429,4.197-20.144
	c0.839-3.357,1.679-6.715,2.518-10.072H153.18V420.511z"/>
<path d="M351.266,419.672c-5.036,0-8.393-3.357-8.393-8.393c0-5.036,3.357-8.393,8.393-8.393l0,0c5.036,0,8.393,3.357,8.393,8.393
	C359.659,416.315,356.302,419.672,351.266,419.672z"/>
<path d="M252.223,503.607c-5.036,0-8.393-3.357-8.393-8.393v-83.934c0-5.036,3.357-8.393,8.393-8.393s8.393,3.357,8.393,8.393
	v83.934C260.616,500.249,257.259,503.607,252.223,503.607z"/>
<path d="M319.37,386.098H185.075c-14.269,0-25.18-10.911-25.18-25.18v-41.967c0-5.036,3.357-8.393,8.393-8.393h167.869
	c5.036,0,8.393,3.357,8.393,8.393v41.967C344.551,375.187,333.639,386.098,319.37,386.098z M176.682,327.344v33.574
	c0,5.036,3.357,8.393,8.393,8.393H319.37c5.036,0,8.393-3.357,8.393-8.393v-33.574H176.682z"/>
<path style="fill:#54C9FD;" d="M336.157,293.77v25.18H168.289v-25.18c0-9.233,7.554-16.787,16.787-16.787H319.37
	C328.603,276.984,336.157,284.538,336.157,293.77"/>
<path d="M336.157,327.344H168.289c-5.036,0-8.393-3.357-8.393-8.393v-25.18c0-14.269,10.911-25.18,25.18-25.18H319.37
	c14.269,0,25.18,10.911,25.18,25.18v25.18C344.551,323.987,341.193,327.344,336.157,327.344z M176.682,310.557h151.082V293.77
	c0-5.036-3.357-8.393-8.393-8.393H185.075c-5.036,0-8.393,3.357-8.393,8.393V310.557z"/>
<path d="M201.862,83.934h-50.361c-25.18,0-41.967-16.787-41.967-41.967C109.534,18.466,128,0,151.502,0h50.361
	c5.036,0,8.393,3.357,8.393,8.393v67.148C210.256,80.577,206.898,83.934,201.862,83.934z M151.502,16.787
	c-14.269,0-25.18,11.751-25.18,25.18c0,15.948,9.233,25.18,25.18,25.18h41.967V16.787H151.502z"/>
<path d="M352.944,83.934h-50.361c-5.036,0-8.393-3.357-8.393-8.393V8.393c0-5.036,3.357-8.393,8.393-8.393h50.361
	c23.502,0,41.967,18.466,41.967,41.967S376.446,83.934,352.944,83.934z M310.977,67.148h41.967c14.269,0,25.18-10.911,25.18-25.18
	s-10.911-25.18-25.18-25.18h-41.967V67.148z"/>
<path d="M218.649,201.443h-33.574c-9.233,0-16.787-7.554-16.787-16.787v-33.574c0-9.233,7.554-16.787,16.787-16.787h33.574
	c9.233,0,16.787,7.554,16.787,16.787v33.574C235.436,193.889,227.882,201.443,218.649,201.443z M185.075,151.082v33.574h33.574
	v-33.574H185.075z"/>
<path d="M218.649,151.082h-33.574c-5.036,0-8.393-3.357-8.393-8.393V75.541c0-5.036,3.357-8.393,8.393-8.393h33.574
	c5.036,0,8.393,3.357,8.393,8.393v67.148C227.043,147.725,223.685,151.082,218.649,151.082z M193.469,134.295h16.787V83.934h-16.787
	V134.295z"/>
<path d="M201.862,251.803c-2.518,0-5.036-1.679-6.715-3.357l-16.787-25.18c-0.839-1.679-1.679-3.357-1.679-5.036v-25.18
	c0-5.036,3.357-8.393,8.393-8.393h33.574c5.036,0,8.393,3.357,8.393,8.393v25.18c0,1.679-0.839,3.357-1.679,5.036l-16.787,25.18
	C206.898,250.964,204.38,251.803,201.862,251.803z M193.469,215.711l8.393,12.59l8.393-12.59v-14.269h-16.787V215.711z
	 M218.649,218.229L218.649,218.229L218.649,218.229z"/>
<path d="M319.37,201.443h-33.574c-9.233,0-16.787-7.554-16.787-16.787v-33.574c0-9.233,7.554-16.787,16.787-16.787h33.574
	c9.233,0,16.787,7.554,16.787,16.787v33.574C336.157,193.889,328.603,201.443,319.37,201.443z M285.797,151.082v33.574h33.574
	v-33.574H285.797z"/>
<path d="M319.37,151.082h-33.574c-5.036,0-8.393-3.357-8.393-8.393V75.541c0-5.036,3.357-8.393,8.393-8.393h33.574
	c5.036,0,8.393,3.357,8.393,8.393v67.148C327.764,147.725,324.407,151.082,319.37,151.082z M294.19,134.295h16.787V83.934H294.19
	V134.295z"/>
<path d="M302.584,251.803c-2.518,0-5.036-1.679-6.715-3.357l-16.787-25.18c-0.839-1.679-1.679-3.357-1.679-5.036v-25.18
	c0-5.036,3.357-8.393,8.393-8.393h33.574c5.036,0,8.393,3.357,8.393,8.393v25.18c0,1.679-0.839,3.357-1.679,5.036l-16.787,25.18
	C307.62,250.964,305.102,251.803,302.584,251.803z M294.19,215.711l8.393,12.59l8.393-12.59v-14.269H294.19V215.711z
	 M319.37,218.229L319.37,218.229L319.37,218.229z"/>
<path d="M369.731,176.262h-41.967c-5.036,0-8.393-3.357-8.393-8.393v-16.787h-33.574v16.787c0,5.036-3.357,8.393-8.393,8.393
	h-50.361c-5.036,0-8.393-3.357-8.393-8.393v-16.787h-33.574v16.787c0,5.036-3.357,8.393-8.393,8.393h-41.967
	c-2.518,0-5.036-0.839-5.875-2.518c-0.839-1.679-2.518-4.197-2.518-6.715l9.233-92.328c0-4.197,4.197-7.554,8.393-7.554h208.157
	c4.197,0,7.554,2.518,8.393,6.715l18.466,92.328c0.839,2.518,0,5.036-1.679,6.715C374.767,175.423,372.249,176.262,369.731,176.262z
	 M336.157,159.475h23.502l-15.108-75.541H151.502l-7.554,75.541h24.341v-8.393c0-9.233,7.554-16.787,16.787-16.787h33.574
	c9.233,0,16.787,7.554,16.787,16.787v8.393h33.574v-8.393c0-9.233,7.554-16.787,16.787-16.787h33.574
	c9.233,0,16.787,7.554,16.787,16.787V159.475z"/>
<path d="M361.338,419.672H143.108c-4.197,0-7.554-3.357-8.393-7.554c-0.839-6.715-2.518-25.18-3.357-39.449
	c0-4.197-0.839-7.554-0.839-10.072c0-0.839,0-0.839,0-1.679c-0.839-14.269-9.233-26.859-20.984-34.413
	c-15.948-10.072-16.787-21.823-16.787-33.574c3.357-38.61,8.393-96.525,8.393-100.721c0-18.466,15.108-33.574,33.574-33.574h41.967
	c5.036,0,8.393,3.357,8.393,8.393v16.787h33.574v-16.787c0-5.036,3.357-8.393,8.393-8.393h50.361c5.036,0,8.393,3.357,8.393,8.393
	v16.787h33.574v-16.787c0-5.036,3.357-8.393,8.393-8.393h41.967c18.466,0,33.574,15.108,33.574,33.574
	c0,4.197,5.036,62.111,8.393,99.882c0,13.43-0.839,25.18-16.787,34.413c-11.751,7.554-20.144,20.144-20.984,34.413
	c0,0.839,0,0.839,0,1.679c0,2.518-0.839,5.875-0.839,10.072c-0.839,14.269-2.518,33.574-3.357,39.449
	C368.892,417.154,365.534,419.672,361.338,419.672z M150.662,402.885h203.121c0.839-8.393,1.679-21.823,2.518-31.056
	c0-5.036,0.839-9.233,0.839-10.911c0-0.839,0-0.839,0-1.679c1.679-18.466,12.59-35.252,28.538-45.325
	c7.554-5.036,9.233-8.393,9.233-19.305c-1.679-15.108-8.393-94.846-8.393-100.721c0-9.233-7.554-16.787-16.787-16.787h-33.574v8.393
	c0,9.233-7.554,16.787-16.787,16.787h-33.574c-9.233,0-16.787-7.554-16.787-16.787v-8.393h-33.574v8.393
	c0,9.233-7.554,16.787-16.787,16.787h-33.574c-9.233,0-16.787-7.554-16.787-16.787v-8.393h-33.574
	c-9.233,0-16.787,7.554-16.787,16.787c0,5.875-7.554,85.613-8.393,101.561c0,10.072,0.839,14.269,9.233,18.466
	c15.948,10.072,26.859,26.859,28.538,45.325c0,0.839,0,0.839,0,1.679c0,2.518,0.839,6.715,0.839,10.911
	C148.984,381.062,149.823,394.492,150.662,402.885z M366.374,360.918L366.374,360.918L366.374,360.918z M403.305,193.049
	L403.305,193.049L403.305,193.049z"/>
<path d="M210.256,344.131c-5.036,0-8.393-3.357-8.393-8.393v-16.787c0-5.036,3.357-8.393,8.393-8.393s8.393,3.357,8.393,8.393
	v16.787C218.649,340.774,215.292,344.131,210.256,344.131z"/>
	
</svg>